<svg width="148" height="51" viewBox="0 0 148 51" fill="none" xmlns="http://www.w3.org/2000/svg">
<path d="M11.9 38H4.7L11.5 6.2L18.9 5.2L15.35 21.9C17.6833 21.7 19.7167 20.3333 21.45 17.8C23.2167 15.2667 24.1 12.5333 24.1 9.6C24.1 7.46667 23.55 5.8 22.45 4.6C21.3833 3.4 19.8667 2.8 17.9 2.8C13.8333 2.8 10.65 3.88333 8.35 6.05C6.08333 8.18333 4.95 11.15 4.95 14.95C4.95 15.5833 4.98333 16.1333 5.05 16.6C5.15 17.0667 5.3 17.5167 5.5 17.95C5.56667 18.0833 5.6 18.1833 5.6 18.25C5.63333 18.2833 5.65 18.3167 5.65 18.35C3.78333 18.35 2.41667 17.9667 1.55 17.2C0.716667 16.4 0.3 15.1667 0.3 13.5C0.3 11.8333 0.85 10.1667 1.95 8.5C3.08333 6.83333 4.65 5.33333 6.65 4C8.35 2.9 10.1667 2.05 12.1 1.45C14.0667 0.816665 15.9833 0.499997 17.85 0.499997C21.5167 0.499997 24.4 1.4 26.5 3.2C28.6 5 29.65 7.38333 29.65 10.35C29.65 12.1167 29.25 13.85 28.45 15.55C27.6833 17.25 26.6 18.7333 25.2 20C23.8667 21.2333 22.35 22.1667 20.65 22.8C18.95 23.4333 17.1333 23.75 15.2 23.75H14.95L11.9 38ZM33.9621 38H26.7621L32.0621 13H39.2621L38.6121 16.1C40.0788 14.8667 41.2288 14.05 42.0621 13.65C42.9288 13.2167 43.7954 13 44.6621 13C45.6954 13 46.5288 13.3667 47.1621 14.1C47.7954 14.8 48.1121 15.6833 48.1121 16.75C48.1121 17.7833 47.7788 18.65 47.1121 19.35C46.4454 20.05 45.5788 20.4 44.5121 20.4C43.9454 20.4 43.4954 20.2667 43.1621 20C42.8621 19.7333 42.6454 19.1833 42.5121 18.35C42.4121 17.8167 42.2954 17.4833 42.1621 17.35C42.0288 17.1833 41.8454 17.1 41.6121 17.1C41.0454 17.1 40.5121 17.2167 40.0121 17.45C39.5121 17.6833 38.8288 18.2 37.9621 19L33.9621 38ZM46.6145 30.3C46.6145 28.4 46.9145 26.3833 47.5145 24.25C48.1478 22.1167 48.9978 20.2167 50.0645 18.55C51.2978 16.5833 52.7811 15.1 54.5145 14.1C56.2478 13.0667 58.1811 12.55 60.3145 12.55C62.4478 12.55 64.0478 13.2167 65.1145 14.55C66.1811 15.8833 66.7145 17.8833 66.7145 20.55C66.7811 20.5833 66.8478 20.6167 66.9145 20.65C67.0145 20.65 67.1311 20.65 67.2645 20.65C68.2978 20.65 69.5311 20.3667 70.9645 19.8C72.3978 19.2333 73.7311 18.5167 74.9645 17.65L75.4145 19C74.4811 20 73.2311 20.8667 71.6645 21.6C70.1311 22.3333 68.4311 22.85 66.5645 23.15C66.1645 27.65 64.8645 31.2833 62.6645 34.05C60.4645 36.8167 57.7811 38.2 54.6145 38.2C52.0145 38.2 50.0311 37.5333 48.6645 36.2C47.2978 34.8667 46.6145 32.9 46.6145 30.3ZM60.7145 15.6C59.1145 15.6 57.5978 17.2167 56.1645 20.45C54.7645 23.6833 54.0645 26.75 54.0645 29.65C54.0645 31.2167 54.2311 32.2833 54.5645 32.85C54.9311 33.4167 55.6145 33.7 56.6145 33.7C57.8478 33.7 59.0145 32.7 60.1145 30.7C61.2478 28.7 62.0145 26.2333 62.4145 23.3C61.9478 23.2 61.5978 22.9833 61.3645 22.65C61.1645 22.2833 61.0645 21.8 61.0645 21.2C61.0645 20.5667 61.1978 20.0167 61.4645 19.55C61.7311 19.0833 62.1145 18.7333 62.6145 18.5C62.5478 17.4333 62.3645 16.6833 62.0645 16.25C61.7978 15.8167 61.3478 15.6 60.7145 15.6ZM81.6813 32.65C81.6813 32.05 81.7479 31.3 81.8813 30.4C82.0479 29.5 82.3646 28.0667 82.8313 26.1C83.2979 24.2 83.5979 22.8333 83.7313 22C83.8646 21.1667 83.9313 20.4667 83.9313 19.9C83.9313 19.0667 83.7813 18.4333 83.4813 18C83.1813 17.5667 82.7313 17.35 82.1313 17.35C81.3313 17.35 80.5813 17.7667 79.8813 18.6C79.2146 19.4 78.6646 20.5167 78.2313 21.95L74.8313 38H67.6312L72.9313 13H80.1313L79.5813 15.6C80.4146 14.6667 81.3146 13.9667 82.2813 13.5C83.2479 13.0333 84.2979 12.8 85.4313 12.8C87.1979 12.8 88.5646 13.2833 89.5313 14.25C90.4979 15.2167 90.9813 16.6167 90.9813 18.45C90.9813 19.2167 90.8813 20.1333 90.6813 21.2C90.5146 22.2333 90.1646 23.8333 89.6313 26C89.1979 27.7 88.9146 28.9 88.7813 29.6C88.6479 30.3 88.5813 30.8833 88.5813 31.35C88.5813 32.05 88.7479 32.5833 89.0813 32.95C89.4146 33.2833 89.9146 33.45 90.5813 33.45C91.4146 33.45 92.1313 33.1667 92.7313 32.6C93.3313 32.0333 94.0146 30.85 94.7812 29.05H96.8813C95.8146 32.15 94.5146 34.4667 92.9813 36C91.4813 37.5333 89.6813 38.3 87.5813 38.3C85.7146 38.3 84.2646 37.8 83.2313 36.8C82.1979 35.7667 81.6813 34.3833 81.6813 32.65ZM107.125 6.35C107.125 7.45 106.725 8.38333 105.925 9.15C105.159 9.91667 104.225 10.3 103.125 10.3C102.025 10.3 101.092 9.91667 100.325 9.15C99.5587 8.38333 99.1754 7.45 99.1754 6.35C99.1754 5.25 99.5587 4.31667 100.325 3.55C101.092 2.75 102.025 2.35 103.125 2.35C104.225 2.35 105.159 2.75 105.925 3.55C106.725 4.31667 107.125 5.25 107.125 6.35ZM94.3754 32.3C94.3754 31.8667 94.4087 31.3833 94.4754 30.85C94.5421 30.2833 94.6421 29.6833 94.7754 29.05L98.1754 13H105.375L101.775 30C101.709 30.3 101.659 30.5833 101.625 30.85C101.592 31.0833 101.575 31.3333 101.575 31.6C101.575 32.2667 101.725 32.75 102.025 33.05C102.359 33.3167 102.892 33.45 103.625 33.45C104.559 33.45 105.442 33.05 106.275 32.25C107.109 31.4167 107.725 30.35 108.125 29.05H110.225C109.159 32.0833 107.725 34.3833 105.925 35.95C104.125 37.5167 102.059 38.3 99.7254 38.3C98.0587 38.3 96.7421 37.7833 95.7754 36.75C94.8421 35.6833 94.3754 34.2 94.3754 32.3ZM107.705 32.3C107.705 31.8667 107.739 31.3833 107.805 30.85C107.872 30.2833 107.972 29.6833 108.105 29.05L113.455 4L120.855 3L115.105 30C115.039 30.3 114.989 30.5833 114.955 30.85C114.922 31.0833 114.905 31.3333 114.905 31.6C114.905 32.2667 115.055 32.75 115.355 33.05C115.689 33.3167 116.222 33.45 116.955 33.45C117.889 33.45 118.772 33.05 119.605 32.25C120.439 31.4167 121.055 30.35 121.455 29.05H123.555C122.489 32.0833 121.055 34.3833 119.255 35.95C117.455 37.5167 115.389 38.3 113.055 38.3C111.389 38.3 110.072 37.7833 109.105 36.75C108.172 35.6833 107.705 34.2 107.705 32.3ZM129.786 33.45C130.619 33.45 131.369 33.1 132.036 32.4C132.702 31.7 133.252 30.6833 133.686 29.35L137.186 13H144.386L139.436 36.2C141.102 35.6 142.402 34.7667 143.336 33.7C144.302 32.6 145.102 31.05 145.736 29.05H147.836C147.069 31.5833 145.969 33.6167 144.536 35.15C143.136 36.6833 141.286 37.7667 138.986 38.4L138.236 42C137.636 44.8 136.586 46.9167 135.086 48.35C133.586 49.7833 131.636 50.5 129.236 50.5C127.536 50.5 126.169 50.0667 125.136 49.2C124.136 48.3333 123.636 47.15 123.636 45.65C123.636 44.0167 124.302 42.5667 125.636 41.3C127.002 40.0667 129.052 39.0333 131.786 38.2L132.386 35.5C131.552 36.4333 130.636 37.1333 129.636 37.6C128.669 38.0667 127.586 38.3 126.386 38.3C124.719 38.3 123.402 37.7833 122.436 36.75C121.502 35.6833 121.036 34.2 121.036 32.3C121.036 31.8667 121.069 31.3833 121.136 30.85C121.202 30.2833 121.302 29.6833 121.436 29.05L124.836 13H132.036L128.436 30C128.402 30.2 128.369 30.4167 128.336 30.65C128.302 30.85 128.286 31.05 128.286 31.25C128.286 31.95 128.402 32.5 128.636 32.9C128.902 33.2667 129.286 33.45 129.786 33.45ZM131.286 40.7C129.619 41.3333 128.386 41.9833 127.586 42.65C126.786 43.35 126.386 44.1167 126.386 44.95C126.386 45.3833 126.552 45.7667 126.886 46.1C127.219 46.4333 127.619 46.6 128.086 46.6C128.652 46.6 129.202 46.2 129.736 45.4C130.269 44.6 130.686 43.5167 130.986 42.15L131.286 40.7Z" fill="url(#paint0_linear_247_2759)"/>
<defs>
<linearGradient id="paint0_linear_247_2759" x1="-1.30377e-07" y1="27" x2="140.878" y2="44.1485" gradientUnits="userSpaceOnUse">
<stop stop-color="#DB2581"/>
<stop offset="1" stop-color="#208CFA"/>
</linearGradient>
</defs>
</svg>
